<?xml version="1.0" encoding="UTF-8"?>
<!DOCTYPE svg PUBLIC "-//W3C//DTD SVG 1.1//EN" "http://www.w3.org/Graphics/SVG/1.1/DTD/svg11.dtd">
<svg xmlns="http://www.w3.org/2000/svg" version="1.1" width="512px" height="512px" style="shape-rendering:geometricPrecision; text-rendering:geometricPrecision; image-rendering:optimizeQuality; fill-rule:evenodd; clip-rule:evenodd" xmlns:xlink="http://www.w3.org/1999/xlink">
<g><path style="opacity:0.984" fill="#2b71fe" d="M 477.5,152.5 C 470.658,148.578 463.658,144.912 456.5,141.5C 446.069,122.737 430.735,109.737 410.5,102.5C 410.611,101.883 410.944,101.383 411.5,101C 373.296,78.6336 334.963,56.467 296.5,34.5C 295.893,34.6236 295.56,34.9569 295.5,35.5C 279.881,22.516 261.881,16.516 241.5,17.5C 234.833,13.1667 228.167,8.83333 221.5,4.5C 249.394,-3.95915 275.394,0.207517 299.5,17C 314.141,28.0975 326.641,41.2642 337,56.5C 355.909,52.8695 368.742,60.0361 375.5,78C 402.433,79.7526 426.766,88.4193 448.5,104C 464.217,116.608 473.884,132.775 477.5,152.5 Z"/></g>
<g><path style="opacity:0.962" fill="#2d79fc" d="M 221.5,4.5 C 228.167,8.83333 234.833,13.1667 241.5,17.5C 232.501,18.611 223.834,20.9443 215.5,24.5C 209.881,21.8741 204.881,18.5407 200.5,14.5C 206.804,9.84953 213.804,6.5162 221.5,4.5 Z"/></g>
<g><path style="opacity:0.959" fill="#2f7ffa" d="M 200.5,14.5 C 204.881,18.5407 209.881,21.8741 215.5,24.5C 208.58,28.7448 201.913,33.4115 195.5,38.5C 190.701,35.263 185.701,32.263 180.5,29.5C 186.443,23.5294 193.109,18.5294 200.5,14.5 Z"/></g>
<g><path style="opacity:0.977" fill="#2c75fc" d="M 410.5,102.5 C 398.808,98.6283 386.808,96.2949 374.5,95.5C 374.245,98.0163 373.411,100.35 372,102.5C 369.59,105.397 367.423,108.397 365.5,111.5C 359.464,107.819 353.464,104.152 347.5,100.5C 357.057,97.0546 360.557,90.3879 358,80.5C 352.553,72.1851 345.387,70.3518 336.5,75C 331.713,78.8642 330.046,83.6975 331.5,89.5C 330.85,89.8039 330.183,90.1373 329.5,90.5C 324.271,87.7256 319.271,84.7256 314.5,81.5C 315.023,75.7876 317.19,70.7876 321,66.5C 321.667,65.5 321.667,64.5 321,63.5C 313.713,53.0471 305.213,43.7138 295.5,35.5C 295.56,34.9569 295.893,34.6236 296.5,34.5C 334.963,56.467 373.296,78.6336 411.5,101C 410.944,101.383 410.611,101.883 410.5,102.5 Z"/></g>
<g><path style="opacity:0.966" fill="#3186f8" d="M 180.5,29.5 C 185.701,32.263 190.701,35.263 195.5,38.5C 190.833,43.8333 185.833,48.8333 180.5,53.5C 176.078,51.5944 171.744,49.4277 167.5,47C 166.748,46.3292 166.414,45.4959 166.5,44.5C 170.461,38.8714 175.127,33.8714 180.5,29.5 Z"/></g>
<g><path style="opacity:0.969" fill="#3591f5" d="M 166.5,44.5 C 166.414,45.4959 166.748,46.3292 167.5,47C 171.744,49.4277 176.078,51.5944 180.5,53.5C 176.599,59.6165 172.433,65.6165 168,71.5C 166.519,74.11 165.352,76.7766 164.5,79.5C 173.991,79.9714 183.324,81.3048 192.5,83.5C 211.335,95.0851 230.335,106.418 249.5,117.5C 240.582,119.695 231.915,122.695 223.5,126.5C 223.631,125.624 223.298,124.957 222.5,124.5C 217.271,121.726 212.271,118.726 207.5,115.5C 212.171,113.164 216.838,110.831 221.5,108.5C 206.167,103.417 190.5,99.75 174.5,97.5C 164.561,90.856 154.228,84.6893 143.5,79C 144.056,78.6174 144.389,78.1174 144.5,77.5C 150.606,65.6029 157.939,54.6029 166.5,44.5 Z"/></g>
<g><path style="opacity:0.987" fill="#389df2" d="M 116.5,78.5 C 116.937,80.0744 117.937,81.2411 119.5,82C 130.73,87.7723 141.397,94.2723 151.5,101.5C 148.362,110.25 145.028,118.917 141.5,127.5C 136.632,124.566 131.632,121.9 126.5,119.5C 129.307,111.079 132.307,102.745 135.5,94.5C 128.16,94.7228 120.827,95.0561 113.5,95.5C 113.554,100.659 112.221,105.325 109.5,109.5C 104.833,106.5 100.167,103.5 95.5,100.5C 98.1596,89.1614 93.8263,82.1614 82.5,79.5C 77.4888,80.3309 73.4888,82.6642 70.5,86.5C 65.457,83.985 60.7904,80.985 56.5,77.5C 62.3445,67.9023 71.0111,62.9023 82.5,62.5C 94.8904,63.4033 104.39,69.07 111,79.5C 112.766,78.7665 114.599,78.4332 116.5,78.5 Z"/></g>
<g><path style="opacity:0.956" fill="#3ba5f0" d="M 56.5,77.5 C 60.7904,80.985 65.457,83.985 70.5,86.5C 66.0081,100.359 71.0081,107.526 85.5,108C 89.8695,106.787 93.2028,104.287 95.5,100.5C 100.167,103.5 104.833,106.5 109.5,109.5C 105.832,116.011 100.499,120.678 93.5,123.5C 80.4308,114.965 66.9308,106.965 53,99.5C 52.6667,100.167 52.3333,100.833 52,101.5C 51.6012,101.272 51.4346,100.938 51.5,100.5C 50.3854,92.0844 52.0521,84.4177 56.5,77.5 Z"/></g>
<g><path style="opacity:0.97" fill="#3798f4" d="M 144.5,77.5 C 144.389,78.1174 144.056,78.6174 143.5,79C 154.228,84.6893 164.561,90.856 174.5,97.5C 167.859,96.0008 161.192,95.6675 154.5,96.5C 153.725,98.3964 152.725,100.063 151.5,101.5C 141.397,94.2723 130.73,87.7723 119.5,82C 117.937,81.2411 116.937,80.0744 116.5,78.5C 125.812,77.7233 135.146,77.39 144.5,77.5 Z"/></g>
<g><path style="opacity:0.975" fill="#2f7ffa" d="M 314.5,81.5 C 319.271,84.7256 324.271,87.7256 329.5,90.5C 330.183,90.1373 330.85,89.8039 331.5,89.5C 334.024,97.1055 339.357,100.772 347.5,100.5C 353.464,104.152 359.464,107.819 365.5,111.5C 368.772,119.981 371.438,128.648 373.5,137.5C 373.649,138.552 373.483,139.552 373,140.5C 367.019,136.76 360.852,133.427 354.5,130.5C 352.469,126.763 350.802,122.763 349.5,118.5C 334.674,118.593 323.674,112.26 316.5,99.5C 312.412,98.5151 308.412,98.8485 304.5,100.5C 297.594,96.7092 290.594,92.8759 283.5,89C 284.056,88.6174 284.389,88.1174 284.5,87.5C 294.295,84.6077 304.295,82.6077 314.5,81.5 Z"/></g>
<g><path style="opacity:0.972" fill="#338cf7" d="M 192.5,83.5 C 211.055,87.0142 229.222,92.0142 247,98.5C 249.433,97.5212 251.933,96.8545 254.5,96.5C 259.605,99.8923 264.938,103.059 270.5,106C 271.163,107.518 272.163,108.685 273.5,109.5C 304.724,123.104 334.057,139.771 361.5,159.5C 361.5,160.167 361.833,160.5 362.5,160.5C 368.915,162.882 375.248,166.215 381.5,170.5C 382.309,172.292 382.809,174.292 383,176.5C 398.004,189.004 411.837,202.671 424.5,217.5C 405.167,206.833 385.833,196.167 366.5,185.5C 331.004,157.048 292.004,134.382 249.5,117.5C 230.335,106.418 211.335,95.0851 192.5,83.5 Z"/></g>
<g><path style="opacity:0.978" fill="#3287f8" d="M 284.5,87.5 C 284.389,88.1174 284.056,88.6174 283.5,89C 290.594,92.8759 297.594,96.7092 304.5,100.5C 296.381,101.758 288.381,103.591 280.5,106C 277.602,106.436 275.269,107.603 273.5,109.5C 272.163,108.685 271.163,107.518 270.5,106C 264.938,103.059 259.605,99.8923 254.5,96.5C 264.166,92.7254 274.166,89.7254 284.5,87.5 Z"/></g>
<g><path style="opacity:0.964" fill="#3dabef" d="M 93.5,123.5 C 86.5949,125.921 79.5949,126.088 72.5,124C 67.7423,121.873 63.2423,119.373 59,116.5C 54.3431,120.324 49.8431,124.324 45.5,128.5C 45.5858,127.504 45.2524,126.671 44.5,126C 40.0608,124.032 36.0608,121.532 32.5,118.5C 37.5449,111.121 43.8783,105.121 51.5,100.5C 51.4346,100.938 51.6012,101.272 52,101.5C 52.3333,100.833 52.6667,100.167 53,99.5C 66.9308,106.965 80.4308,114.965 93.5,123.5 Z"/></g>
<g><path style="opacity:0.965" fill="#3798f3" d="M 207.5,115.5 C 212.271,118.726 217.271,121.726 222.5,124.5C 223.298,124.957 223.631,125.624 223.5,126.5C 215.358,130.737 207.024,134.737 198.5,138.5C 193.239,134.703 187.572,131.703 181.5,129.5C 189.845,124.326 198.512,119.659 207.5,115.5 Z"/></g>
<g><path style="opacity:0.962" fill="#3ba5f0" d="M 126.5,119.5 C 131.632,121.9 136.632,124.566 141.5,127.5C 139.87,134.051 137.87,140.385 135.5,146.5C 130.368,144.1 125.368,141.434 120.5,138.5C 122.102,132.028 124.102,125.695 126.5,119.5 Z"/></g>
<g><path style="opacity:0.968" fill="#399ff2" d="M 181.5,129.5 C 187.572,131.703 193.239,134.703 198.5,138.5C 191.869,142.485 185.202,146.485 178.5,150.5C 178.063,148.926 177.063,147.759 175.5,147C 171.268,144.725 167.268,142.225 163.5,139.5C 169.205,135.647 175.205,132.314 181.5,129.5 Z"/></g>
<g><path style="opacity:0.961" fill="#41b6ec" d="M 32.5,118.5 C 36.0608,121.532 40.0608,124.032 44.5,126C 45.2524,126.671 45.5858,127.504 45.5,128.5C 38.8383,138.136 34.505,148.803 32.5,160.5C 27.4079,157.287 22.0745,154.621 16.5,152.5C 19.1826,139.807 24.5159,128.473 32.5,118.5 Z"/></g>
<g><path style="opacity:0.969" fill="#3dacee" d="M 120.5,138.5 C 125.368,141.434 130.368,144.1 135.5,146.5C 134.33,151.174 133.497,155.841 133,160.5C 136.456,157.198 140.289,154.531 144.5,152.5C 149.833,155.5 155.167,158.5 160.5,161.5C 152.19,167.468 143.857,173.468 135.5,179.5C 128.504,174.666 121.171,170.333 113.5,166.5C 115.524,157.071 117.857,147.738 120.5,138.5 Z"/></g>
<g><path style="opacity:0.963" fill="#3ba5f0" d="M 163.5,139.5 C 167.268,142.225 171.268,144.725 175.5,147C 177.063,147.759 178.063,148.926 178.5,150.5C 172.5,154.167 166.5,157.833 160.5,161.5C 155.167,158.5 149.833,155.5 144.5,152.5C 150.536,147.809 156.869,143.475 163.5,139.5 Z"/></g>
<g><path style="opacity:0.968" fill="#2d78fc" d="M 456.5,141.5 C 463.658,144.912 470.658,148.578 477.5,152.5C 479.034,158.607 480.034,164.94 480.5,171.5C 480.272,173.207 479.938,174.874 479.5,176.5C 474.395,174.113 469.395,171.446 464.5,168.5C 463.893,168.624 463.56,168.957 463.5,169.5C 462.706,159.886 460.372,150.553 456.5,141.5 Z"/></g>
<g><path style="opacity:0.975" fill="#3187f8" d="M 354.5,130.5 C 360.852,133.427 367.019,136.76 373,140.5C 373.483,139.552 373.649,138.552 373.5,137.5C 377.24,148.131 379.907,159.131 381.5,170.5C 375.248,166.215 368.915,162.882 362.5,160.5C 361.833,160.5 361.5,160.167 361.5,159.5C 359.635,149.709 357.302,140.042 354.5,130.5 Z"/></g>
<g><path style="opacity:0.962" fill="#3593f5" d="M 312.5,175.5 C 299.715,169.275 287.382,162.275 275.5,154.5C 276.318,149.857 279.151,147.524 284,147.5C 293.993,149.032 303.827,151.198 313.5,154C 315.592,155.853 316.592,158.186 316.5,161C 315.468,165.927 314.135,170.76 312.5,175.5 Z"/></g>
<g><path style="opacity:0.968" fill="#43bee9" d="M 16.5,152.5 C 22.0745,154.621 27.4079,157.287 32.5,160.5C 31.669,167.131 31.3357,173.798 31.5,180.5C 31.631,181.239 31.4643,181.906 31,182.5C 25.6859,179.094 20.1859,176.094 14.5,173.5C 14.4465,166.421 15.1132,159.421 16.5,152.5 Z"/></g>
<g><path style="opacity:0.975" fill="#3798f3" d="M 275.5,154.5 C 287.382,162.275 299.715,169.275 312.5,175.5C 310.91,179.768 309.41,184.101 308,188.5C 303.353,194.632 298.353,194.965 293,189.5C 291.587,186.369 291.087,183.369 291.5,180.5C 287.966,182.766 284.3,184.766 280.5,186.5C 275.539,182.68 270.206,179.347 264.5,176.5C 270.77,172.692 277.103,168.859 283.5,165C 277.317,163.705 274.65,160.205 275.5,154.5 Z"/></g>
<g><path style="opacity:0.969" fill="#2f7ffa" d="M 479.5,176.5 C 479.709,184.368 478.709,192.034 476.5,199.5C 471.368,197.1 466.368,194.434 461.5,191.5C 462.167,184.167 462.833,176.833 463.5,169.5C 463.56,168.957 463.893,168.624 464.5,168.5C 469.395,171.446 474.395,174.113 479.5,176.5 Z"/></g>
<g><path style="opacity:0.975" fill="#40b7eb" d="M 113.5,166.5 C 121.171,170.333 128.504,174.666 135.5,179.5C 133.188,181.636 130.688,183.636 128,185.5C 126.089,194.469 124.589,203.469 123.5,212.5C 118.167,209.833 112.833,207.167 107.5,204.5C 107.167,204.5 106.833,204.5 106.5,204.5C 106.631,203.624 106.298,202.957 105.5,202.5C 100.935,200.059 96.6021,197.392 92.5,194.5C 98.4705,188.699 104.637,183.033 111,177.5C 112.154,173.896 112.987,170.229 113.5,166.5 Z"/></g>
<g><path style="opacity:0.975" fill="#44c5e8" d="M 14.5,173.5 C 20.1859,176.094 25.6859,179.094 31,182.5C 31.4643,181.906 31.631,181.239 31.5,180.5C 32.9936,189.488 34.9936,198.488 37.5,207.5C 37.6309,208.376 37.2975,209.043 36.5,209.5C 31.0361,206.532 25.7028,203.366 20.5,200C 19.5632,199.308 18.8966,199.475 18.5,200.5C 16.0107,191.807 14.6773,182.807 14.5,173.5 Z"/></g>
<g><path style="opacity:0.968" fill="#3592f5" d="M 366.5,185.5 C 385.833,196.167 405.167,206.833 424.5,217.5C 430.85,224.358 436.683,231.691 442,239.5C 443.765,236.968 445.265,234.301 446.5,231.5C 450.423,232.795 454.09,234.628 457.5,237C 459.439,237.908 460.439,239.408 460.5,241.5C 457.887,246.391 455.554,251.391 453.5,256.5C 450.984,256.245 448.65,255.411 446.5,254C 438.833,249.5 431.167,245 423.5,240.5C 422.893,240.624 422.56,240.957 422.5,241.5C 411.967,228.46 400.467,216.127 388,204.5C 387.758,210.167 387.925,215.833 388.5,221.5C 383.212,216.847 377.212,213.18 370.5,210.5C 369.898,202.009 368.565,193.676 366.5,185.5 Z"/></g>
<g><path style="opacity:0.959" fill="#3aa3f1" d="M 264.5,176.5 C 270.206,179.347 275.539,182.68 280.5,186.5C 267.7,194.404 254.7,202.071 241.5,209.5C 241.631,208.624 241.298,207.957 240.5,207.5C 236.167,205 231.833,202.5 227.5,200C 226.181,199.805 224.847,199.972 223.5,200.5C 236.666,191.747 250.333,183.747 264.5,176.5 Z"/></g>
<g><path style="opacity:0.95" fill="#43bee9" d="M 92.5,194.5 C 96.6021,197.392 100.935,200.059 105.5,202.5C 106.298,202.957 106.631,203.624 106.5,204.5C 101.5,209.167 96.5,213.833 91.5,218.5C 87.2109,214.522 82.2109,211.855 76.5,210.5C 81.5,204.833 86.8333,199.5 92.5,194.5 Z"/></g>
<g><path style="opacity:0.968" fill="#46cae7" d="M 37.5,207.5 C 41.145,218.404 46.145,228.738 52.5,238.5C 60.1484,228.853 68.1484,219.519 76.5,210.5C 82.2109,211.855 87.2109,214.522 91.5,218.5C 82.1151,229.215 73.1151,240.215 64.5,251.5C 52.6705,245.086 41.0038,238.42 29.5,231.5C 24.0705,221.883 20.4038,211.55 18.5,200.5C 18.8966,199.475 19.5632,199.308 20.5,200C 25.7028,203.366 31.0361,206.532 36.5,209.5C 37.2975,209.043 37.6309,208.376 37.5,207.5 Z"/></g>
<g><path style="opacity:0.965" fill="#3dabef" d="M 241.5,209.5 C 235.298,213.101 228.964,216.434 222.5,219.5C 216.702,216.767 211.035,213.767 205.5,210.5C 211.17,206.663 217.17,203.33 223.5,200.5C 224.847,199.972 226.181,199.805 227.5,200C 231.833,202.5 236.167,205 240.5,207.5C 241.298,207.957 241.631,208.624 241.5,209.5 Z"/></g>
<g><path style="opacity:0.949" fill="#399ef2" d="M 344.5,244.5 C 339.279,241.638 334.112,238.638 329,235.5C 328.79,237.058 328.29,238.391 327.5,239.5C 327.5,231.833 327.5,224.167 327.5,216.5C 323.833,216.5 320.167,216.5 316.5,216.5C 316.5,221.833 316.5,227.167 316.5,232.5C 315.837,230.958 315.17,229.291 314.5,227.5C 309.605,224.554 304.605,221.887 299.5,219.5C 299.334,214.156 299.501,208.823 300,203.5C 301.167,202.333 302.333,201.167 303.5,200C 316.262,199.04 328.929,199.373 341.5,201C 342.701,201.903 343.535,203.069 344,204.5C 344.5,217.829 344.667,231.163 344.5,244.5 Z"/></g>
<g><path style="opacity:0.959" fill="#43bfe9" d="M 107.5,204.5 C 112.833,207.167 118.167,209.833 123.5,212.5C 123.533,216.92 123.367,221.254 123,225.5C 133.39,229.056 140.223,236.056 143.5,246.5C 130.582,240.039 117.915,233.039 105.5,225.5C 106.287,218.515 106.953,211.515 107.5,204.5 Z"/></g>
<g><path style="opacity:0.967" fill="#3799f3" d="M 370.5,210.5 C 377.212,213.18 383.212,216.847 388.5,221.5C 389.317,230.809 389.65,240.143 389.5,249.5C 384.335,245.414 378.668,242.08 372.5,239.5C 372.139,229.808 371.472,220.141 370.5,210.5 Z"/></g>
<g><path style="opacity:0.961" fill="#338af7" d="M 461.5,191.5 C 466.368,194.434 471.368,197.1 476.5,199.5C 473.368,214.415 468.035,228.415 460.5,241.5C 460.439,239.408 459.439,237.908 457.5,237C 454.09,234.628 450.423,232.795 446.5,231.5C 453.104,218.678 458.104,205.345 461.5,191.5 Z"/></g>
<g><path style="opacity:0.972" fill="#3fb2ed" d="M 205.5,210.5 C 211.035,213.767 216.702,216.767 222.5,219.5C 214.836,224.668 206.836,229.335 198.5,233.5C 193.328,230.415 188.328,227.081 183.5,223.5C 190.468,218.678 197.801,214.344 205.5,210.5 Z"/></g>
<g><path style="opacity:0.966" fill="#41b9eb" d="M 183.5,223.5 C 188.328,227.081 193.328,230.415 198.5,233.5C 191.225,238.478 183.559,242.978 175.5,247C 166.148,246.97 162.981,242.47 166,233.5C 171.481,229.511 177.314,226.177 183.5,223.5 Z"/></g>
<g><path style="opacity:0.977" fill="#3dabee" d="M 294.5,261.5 C 289.238,258.755 284.072,255.755 279,252.5C 278.5,260.159 278.334,267.826 278.5,275.5C 278.167,275.5 277.833,275.5 277.5,275.5C 277.5,264.5 277.5,253.5 277.5,242.5C 275.167,242.5 272.833,242.5 270.5,242.5C 269.081,241.549 267.415,241.216 265.5,241.5C 265.719,242.675 265.386,243.675 264.5,244.5C 259.918,241.959 255.418,239.293 251,236.5C 250.79,238.058 250.29,239.391 249.5,240.5C 249.335,237.15 249.502,233.817 250,230.5C 250.833,228.333 252.333,226.833 254.5,226C 266.5,225.333 278.5,225.333 290.5,226C 291.667,227.167 292.833,228.333 294,229.5C 294.5,240.161 294.667,250.828 294.5,261.5 Z"/></g>
<g><path style="opacity:0.963" fill="#45c4e8" d="M 105.5,225.5 C 117.915,233.039 130.582,240.039 143.5,246.5C 145.464,254.996 144.464,262.996 140.5,270.5C 136.21,267.015 131.543,264.015 126.5,261.5C 128.809,247.978 123.142,241.478 109.5,242C 106.241,243.117 103.574,244.95 101.5,247.5C 96.9802,243.991 91.9802,241.325 86.5,239.5C 90.8381,232.161 97.1714,227.494 105.5,225.5 Z"/></g>
<g><path style="opacity:0.97" fill="#49d1e4" d="M 29.5,231.5 C 41.0038,238.42 52.6705,245.086 64.5,251.5C 63.6343,253.144 63.1343,254.811 63,256.5C 70.2848,266.949 78.1182,276.949 86.5,286.5C 71.0686,278.265 55.4019,269.598 39.5,260.5C 39.8769,258.742 40.5435,257.075 41.5,255.5C 36.9462,247.726 32.9462,239.726 29.5,231.5 Z"/></g>
<g><path style="opacity:0.971" fill="#47cbe6" d="M 86.5,239.5 C 91.9802,241.325 96.9802,243.991 101.5,247.5C 97.6021,255.781 99.2688,262.614 106.5,268C 115.003,271.239 121.669,269.073 126.5,261.5C 131.543,264.015 136.21,267.015 140.5,270.5C 136.977,277.762 131.311,282.429 123.5,284.5C 120.984,284.245 118.65,283.411 116.5,282C 105.275,275.224 93.9416,268.724 82.5,262.5C 82.3341,257.489 82.5007,252.489 83,247.5C 83.7048,244.524 84.8714,241.858 86.5,239.5 Z"/></g>
<g><path style="opacity:0.977" fill="#3797f4" d="M 453.5,256.5 C 456.029,261.055 458.696,265.555 461.5,270C 480.121,269.814 491.454,278.647 495.5,296.5C 495.483,298.028 494.816,298.528 493.5,298C 472.257,285.238 450.924,272.738 429.5,260.5C 431.1,258.429 431.6,256.095 431,253.5C 427.911,249.646 425.078,245.646 422.5,241.5C 422.56,240.957 422.893,240.624 423.5,240.5C 431.167,245 438.833,249.5 446.5,254C 448.65,255.411 450.984,256.245 453.5,256.5 Z"/></g>
<g><path style="opacity:0.974" fill="#3ca9ef" d="M 299.5,219.5 C 304.605,221.887 309.605,224.554 314.5,227.5C 315.17,229.291 315.837,230.958 316.5,232.5C 316.5,248.833 316.5,265.167 316.5,281.5C 315.834,278.972 315.168,276.306 314.5,273.5C 309.605,270.554 304.605,267.887 299.5,265.5C 299.5,250.167 299.5,234.833 299.5,219.5 Z"/></g>
<g><path style="opacity:0.954" fill="#3fb2ed" d="M 270.5,242.5 C 269.167,242.5 267.833,242.5 266.5,242.5C 266.5,252.5 266.5,262.5 266.5,272.5C 261.527,269.679 256.527,266.845 251.5,264C 250.901,262.378 250.234,260.878 249.5,259.5C 249.5,253.167 249.5,246.833 249.5,240.5C 250.29,239.391 250.79,238.058 251,236.5C 255.418,239.293 259.918,241.959 264.5,244.5C 265.386,243.675 265.719,242.675 265.5,241.5C 267.415,241.216 269.081,241.549 270.5,242.5 Z"/></g>
<g><path style="opacity:0.948" fill="#42baea" d="M 245.5,306.5 C 240.279,303.638 235.112,300.638 230,297.5C 229.768,298.737 229.268,299.737 228.5,300.5C 228.5,289.833 228.5,279.167 228.5,268.5C 224.5,268.5 220.5,268.5 216.5,268.5C 216.5,275.5 216.5,282.5 216.5,289.5C 211.527,286.679 206.527,283.845 201.5,281C 200.901,279.378 200.234,277.878 199.5,276.5C 199.334,270.158 199.5,263.825 200,257.5C 200.774,255.061 202.274,253.227 204.5,252C 216.929,251.041 229.263,251.374 241.5,253C 243.049,254.214 244.215,255.714 245,257.5C 245.5,273.83 245.667,290.163 245.5,306.5 Z"/></g>
<g><path style="opacity:0.947" fill="#3ca9ef" d="M 344.5,244.5 C 344.5,258.5 344.5,272.5 344.5,286.5C 343.842,287.398 343.176,288.398 342.5,289.5C 337.605,286.554 332.605,283.887 327.5,281.5C 327.5,267.5 327.5,253.5 327.5,239.5C 328.29,238.391 328.79,237.058 329,235.5C 334.112,238.638 339.279,241.638 344.5,244.5 Z"/></g>
<g><path style="opacity:0.954" fill="#3aa3f0" d="M 372.5,239.5 C 378.668,242.08 384.335,245.414 389.5,249.5C 389.656,263.849 389.323,278.183 388.5,292.5C 382.421,290.139 377.087,286.806 372.5,282.5C 372.5,268.167 372.5,253.833 372.5,239.5 Z"/></g>
<g><path style="opacity:0.969" fill="#389df2" d="M 429.5,260.5 C 450.924,272.738 472.257,285.238 493.5,298C 494.816,298.528 495.483,298.028 495.5,296.5C 497.765,308.321 494.098,317.987 484.5,325.5C 478.633,322.404 472.967,319.071 467.5,315.5C 477.596,312.309 481.096,305.643 478,295.5C 472.005,286.727 464.505,285.227 455.5,291C 451.729,295.26 450.395,300.093 451.5,305.5C 445.01,303.427 439.343,300.094 434.5,295.5C 435.858,287.972 439.525,281.805 445.5,277C 444.458,275.082 443.292,273.249 442,271.5C 437.198,278.79 431.698,285.456 425.5,291.5C 420.632,288.566 415.632,285.9 410.5,283.5C 417.083,275.978 423.416,268.311 429.5,260.5 Z"/></g>
<g><path style="opacity:0.963" fill="#48d1e5" d="M 82.5,262.5 C 93.9416,268.724 105.275,275.224 116.5,282C 118.65,283.411 120.984,284.245 123.5,284.5C 123.219,292.802 123.886,301.136 125.5,309.5C 119.315,306.822 113.481,303.489 108,299.5C 107.601,299.728 107.435,300.062 107.5,300.5C 106.673,295.654 106.006,290.654 105.5,285.5C 93.5055,282.172 85.8388,274.505 82.5,262.5 Z"/></g>
<g><path style="opacity:0.99" fill="#45c5e8" d="M 156.5,277.5 C 167.505,277.333 178.505,277.5 189.5,278C 192.333,278.833 194.167,280.667 195,283.5C 195.499,287.821 195.666,292.154 195.5,296.5C 194.71,297.609 194.21,298.942 194,300.5C 181.186,293.184 168.686,285.518 156.5,277.5 Z"/></g>
<g><path style="opacity:0.927" fill="#46cbe6" d="M 156.5,277.5 C 168.686,285.518 181.186,293.184 194,300.5C 194.21,298.942 194.71,297.609 195.5,296.5C 195.5,306.833 195.5,317.167 195.5,327.5C 190.362,324.763 185.362,321.763 180.5,318.5C 179.83,316.709 179.163,315.042 178.5,313.5C 178.5,307.167 178.5,300.833 178.5,294.5C 174.5,294.5 170.5,294.5 166.5,294.5C 166.5,299.833 166.5,305.167 166.5,310.5C 161.279,307.638 156.112,304.638 151,301.5C 150.829,309.344 150.329,317.011 149.5,324.5C 149.333,311.163 149.5,297.829 150,284.5C 150.962,281.039 153.128,278.705 156.5,277.5 Z"/></g>
<g><path style="opacity:0.997" fill="#40b6ec" d="M 294.5,261.5 C 294.5,278.167 294.5,294.833 294.5,311.5C 289.279,308.638 284.112,305.638 279,302.5C 278.5,293.506 278.334,284.506 278.5,275.5C 278.334,267.826 278.5,260.159 279,252.5C 284.072,255.755 289.238,258.755 294.5,261.5 Z"/></g>
<g><path style="opacity:0.972" fill="#4bd8e3" d="M 39.5,260.5 C 55.4019,269.598 71.0686,278.265 86.5,286.5C 92.8023,293.635 99.6356,300.301 107,306.5C 107.495,304.527 107.662,302.527 107.5,300.5C 107.435,300.062 107.601,299.728 108,299.5C 113.481,303.489 119.315,306.822 125.5,309.5C 125.48,315.219 126.48,320.719 128.5,326C 163.698,353.946 202.365,376.279 244.5,393C 246.5,393.667 248.5,393.667 250.5,393C 254.422,391.202 258.422,389.702 262.5,388.5C 267.967,392.071 273.633,395.404 279.5,398.5C 277.565,399.81 275.565,401.143 273.5,402.5C 274.949,403.172 276.282,403.839 277.5,404.5C 277.414,405.496 277.748,406.329 278.5,407C 304.004,421.92 329.671,436.586 355.5,451C 356.252,451.671 356.586,452.504 356.5,453.5C 352.946,454.984 349.112,455.651 345,455.5C 342.245,455.475 339.578,455.141 337,454.5C 333.538,460.446 329.371,465.78 324.5,470.5C 319.233,468.194 314.566,465.194 310.5,461.5C 314.531,456.609 318.198,451.442 321.5,446C 317.658,441.148 315.325,435.648 314.5,429.5C 300.987,427.731 287.654,425.064 274.5,421.5C 274.918,420.778 275.584,420.278 276.5,420C 213.595,383.578 150.595,347.411 87.5,311.5C 74.9165,299.751 63.5831,286.918 53.5,273C 51.8866,272.911 50.7199,273.745 50,275.5C 48.3924,279.056 46.5591,282.389 44.5,285.5C 40.0614,283.446 35.728,281.113 31.5,278.5C 30.8165,278.863 30.1499,279.196 29.5,279.5C 30.0305,277.076 30.8638,274.743 32,272.5C 34.2746,268.268 36.7746,264.268 39.5,260.5 Z"/></g>
<g><path style="opacity:0.962" fill="#3ba5f0" d="M 410.5,283.5 C 415.632,285.9 420.632,288.566 425.5,291.5C 421.199,297.135 416.533,302.468 411.5,307.5C 407.407,304.276 403.074,301.276 398.5,298.5C 399.63,297.378 400.297,296.044 400.5,294.5C 403.862,290.808 407.195,287.141 410.5,283.5 Z"/></g>
<g><path style="opacity:0.965" fill="#3dacee" d="M 372.5,282.5 C 377.087,286.806 382.421,290.139 388.5,292.5C 387.705,297.149 387.539,301.816 388,306.5C 392.036,302.296 396.202,298.296 400.5,294.5C 400.297,296.044 399.63,297.378 398.5,298.5C 403.074,301.276 407.407,304.276 411.5,307.5C 405.132,314.869 398.132,321.536 390.5,327.5C 384.454,322.499 377.787,318.166 370.5,314.5C 369.817,314.863 369.15,315.196 368.5,315.5C 370.041,304.398 371.374,293.398 372.5,282.5 Z"/></g>
<g><path style="opacity:0.94" fill="#42bcea" d="M 249.5,259.5 C 250.234,260.878 250.901,262.378 251.5,264C 256.527,266.845 261.527,269.679 266.5,272.5C 266.5,289.167 266.5,305.833 266.5,322.5C 265.837,320.958 265.17,319.291 264.5,317.5C 259.307,314.74 254.307,311.74 249.5,308.5C 249.5,292.167 249.5,275.833 249.5,259.5 Z"/></g>
<g><path style="opacity:0.957" fill="#44c4e8" d="M 199.5,276.5 C 200.234,277.878 200.901,279.378 201.5,281C 206.527,283.845 211.527,286.679 216.5,289.5C 216.5,295.833 216.5,302.167 216.5,308.5C 215.596,309.209 215.263,310.209 215.5,311.5C 209.925,309.379 204.592,306.713 199.5,303.5C 199.5,294.5 199.5,285.5 199.5,276.5 Z"/></g>
<g><path style="opacity:0.944" fill="#3fb2ed" d="M 327.5,281.5 C 332.605,283.887 337.605,286.554 342.5,289.5C 343.176,288.398 343.842,287.398 344.5,286.5C 344.5,295.5 344.5,304.5 344.5,313.5C 343.842,314.398 343.176,315.398 342.5,316.5C 337.605,313.554 332.605,310.887 327.5,308.5C 327.5,299.5 327.5,290.5 327.5,281.5 Z"/></g>
<g><path style="opacity:0.955" fill="#40b6ec" d="M 299.5,265.5 C 304.605,267.887 309.605,270.554 314.5,273.5C 315.168,276.306 315.834,278.972 316.5,281.5C 316.5,293.167 316.5,304.833 316.5,316.5C 315.686,318.631 315.186,320.964 315,323.5C 309.888,320.362 304.721,317.362 299.5,314.5C 299.5,298.167 299.5,281.833 299.5,265.5 Z"/></g>
<g><path style="opacity:0.973" fill="#3ba5f0" d="M 434.5,295.5 C 439.343,300.094 445.01,303.427 451.5,305.5C 454.485,312.468 459.818,315.802 467.5,315.5C 472.967,319.071 478.633,322.404 484.5,325.5C 483.167,326.933 481.667,328.267 480,329.5C 479.501,334.823 479.334,340.156 479.5,345.5C 474.279,342.638 469.112,339.638 464,336.5C 463.601,336.728 463.435,337.062 463.5,337.5C 462.549,336.081 462.216,334.415 462.5,332.5C 441.782,328.716 432.449,316.383 434.5,295.5 Z"/></g>
<g><path style="opacity:0.978" fill="#49d2e4" d="M 166.5,310.5 C 166.5,315.833 166.5,321.167 166.5,326.5C 170.5,326.5 174.5,326.5 178.5,326.5C 178.5,322.167 178.5,317.833 178.5,313.5C 179.163,315.042 179.83,316.709 180.5,318.5C 185.362,321.763 190.362,324.763 195.5,327.5C 195.665,330.85 195.498,334.183 195,337.5C 193.833,340 192,341.833 189.5,343C 178.5,343.667 167.5,343.667 156.5,343C 154.152,342.654 152.319,341.487 151,339.5C 149.75,334.58 149.25,329.58 149.5,324.5C 150.329,317.011 150.829,309.344 151,301.5C 156.112,304.638 161.279,307.638 166.5,310.5 Z"/></g>
<g><path style="opacity:0.961" fill="#4de2e0" d="M 44.5,285.5 C 38.4723,299.252 34.4723,313.585 32.5,328.5C 27.1667,325.833 21.8333,323.167 16.5,320.5C 18.2499,305.921 22.5833,292.254 29.5,279.5C 30.1499,279.196 30.8165,278.863 31.5,278.5C 35.728,281.113 40.0614,283.446 44.5,285.5 Z"/></g>
<g><path style="opacity:0.954" fill="#47cbe6" d="M 199.5,303.5 C 204.592,306.713 209.925,309.379 215.5,311.5C 215.263,310.209 215.596,309.209 216.5,308.5C 216.5,314.5 216.5,320.5 216.5,326.5C 220.5,326.5 224.5,326.5 228.5,326.5C 229.163,324.958 229.83,323.291 230.5,321.5C 235.395,324.446 240.395,327.113 245.5,329.5C 245.699,332.941 245.199,336.274 244,339.5C 242.681,341.487 240.848,342.654 238.5,343C 226.762,343.935 215.095,343.602 203.5,342C 201.951,340.786 200.785,339.286 200,337.5C 199.5,326.172 199.333,314.838 199.5,303.5 Z"/></g>
<g><path style="opacity:0.923" fill="#44c4e8" d="M 245.5,306.5 C 245.5,314.167 245.5,321.833 245.5,329.5C 240.395,327.113 235.395,324.446 230.5,321.5C 229.83,323.291 229.163,324.958 228.5,326.5C 228.5,317.833 228.5,309.167 228.5,300.5C 229.268,299.737 229.768,298.737 230,297.5C 235.112,300.638 240.279,303.638 245.5,306.5 Z"/></g>
<g><path style="opacity:0.976" fill="#4cdce2" d="M 87.5,311.5 C 150.595,347.411 213.595,383.578 276.5,420C 275.584,420.278 274.918,420.778 274.5,421.5C 265.336,418.612 256.169,415.612 247,412.5C 242.571,414.144 238.071,415.477 233.5,416.5C 226.852,414.345 220.519,411.345 214.5,407.5C 213.702,407.043 213.369,406.376 213.5,405.5C 216.144,404.507 218.81,403.507 221.5,402.5C 189.844,388.598 160.344,371.264 133,350.5C 133.288,353.791 133.788,357.125 134.5,360.5C 127.126,357.488 120.46,353.488 114.5,348.5C 113.527,343.47 112.36,338.47 111,333.5C 102.366,327.034 94.5331,319.7 87.5,311.5 Z"/></g>
<g><path style="opacity:0.952" fill="#42bcea" d="M 327.5,308.5 C 332.605,310.887 337.605,313.554 342.5,316.5C 343.176,315.398 343.842,314.398 344.5,313.5C 344.943,322.608 344.443,331.608 343,340.5C 341.581,341.46 340.081,342.293 338.5,343C 327.5,343.667 316.5,343.667 305.5,343C 303.919,342.293 302.419,341.46 301,340.5C 299.559,331.942 299.059,323.276 299.5,314.5C 304.721,317.362 309.888,320.362 315,323.5C 315.186,320.964 315.686,318.631 316.5,316.5C 316.5,319.833 316.5,323.167 316.5,326.5C 320.167,326.5 323.833,326.5 327.5,326.5C 327.5,320.5 327.5,314.5 327.5,308.5 Z"/></g>
<g><path style="opacity:0.996" fill="#44c3e8" d="M 277.5,275.5 C 277.833,275.5 278.167,275.5 278.5,275.5C 278.334,284.506 278.5,293.506 279,302.5C 284.112,305.638 289.279,308.638 294.5,311.5C 294.666,320.506 294.5,329.506 294,338.5C 293.535,339.931 292.701,341.097 291.5,342C 279.571,343.604 267.571,343.937 255.5,343C 253,341.833 251.167,340 250,337.5C 249.5,327.839 249.334,318.172 249.5,308.5C 254.307,311.74 259.307,314.74 264.5,317.5C 265.17,319.291 265.837,320.958 266.5,322.5C 266.5,323.833 266.5,325.167 266.5,326.5C 270.167,326.5 273.833,326.5 277.5,326.5C 277.5,309.5 277.5,292.5 277.5,275.5 Z"/></g>
<g><path style="opacity:0.973" fill="#41b7eb" d="M 390.5,327.5 C 387.896,329.6 385.396,331.933 383,334.5C 381.63,342.975 379.797,351.309 377.5,359.5C 372.632,356.566 367.632,353.9 362.5,351.5C 362.167,350.167 361.833,350.167 361.5,351.5C 361.167,351.5 360.833,351.5 360.5,351.5C 360.586,350.504 360.252,349.671 359.5,349C 354.942,346.27 350.275,343.77 345.5,341.5C 352.767,336.078 359.934,330.411 367,324.5C 367.953,321.568 368.453,318.568 368.5,315.5C 369.15,315.196 369.817,314.863 370.5,314.5C 377.787,318.166 384.454,322.499 390.5,327.5 Z"/></g>
<g><path style="opacity:0.967" fill="#3dacee" d="M 479.5,345.5 C 479.076,355.192 477.076,364.526 473.5,373.5C 467.995,371.251 462.995,368.251 458.5,364.5C 461.535,355.772 463.201,346.772 463.5,337.5C 463.435,337.062 463.601,336.728 464,336.5C 469.112,339.638 474.279,342.638 479.5,345.5 Z"/></g>
<g><path style="opacity:0.969" fill="#52eedd" d="M 16.5,320.5 C 21.8333,323.167 27.1667,325.833 32.5,328.5C 29.8946,347.408 33.8946,364.742 44.5,380.5C 43.8826,380.611 43.3826,380.944 43,381.5C 35.4714,376.489 27.6381,372.155 19.5,368.5C 14.2288,352.662 13.2288,336.662 16.5,320.5 Z"/></g>
<g><path style="opacity:0.981" fill="#44c2e8" d="M 345.5,341.5 C 350.275,343.77 354.942,346.27 359.5,349C 360.252,349.671 360.586,350.504 360.5,351.5C 348.881,359.983 336.881,367.983 324.5,375.5C 318.807,371.987 312.807,368.987 306.5,366.5C 319.746,358.595 332.746,350.262 345.5,341.5 Z"/></g>
<g><path style="opacity:0.965" fill="#4ee4e0" d="M 114.5,348.5 C 120.46,353.488 127.126,357.488 134.5,360.5C 138.006,371.022 141.339,381.689 144.5,392.5C 144.565,392.938 144.399,393.272 144,393.5C 137.351,389.427 130.518,385.76 123.5,382.5C 119.88,371.355 116.88,360.022 114.5,348.5 Z"/></g>
<g><path style="opacity:0.973" fill="#54f6db" d="M 19.5,368.5 C 27.6381,372.155 35.4714,376.489 43,381.5C 43.3826,380.944 43.8826,380.611 44.5,380.5C 51.6595,389.824 60.4928,397.157 71,402.5C 72.3712,400.959 73.8712,399.625 75.5,398.5C 75.3691,399.376 75.7025,400.043 76.5,400.5C 81.0645,402.941 85.3979,405.608 89.5,408.5C 83.7099,413.204 81.7099,419.204 83.5,426.5C 72.7584,420.378 61.9251,414.378 51,408.5C 50.2352,408.57 49.7352,408.903 49.5,409.5C 35.3615,398.901 25.3615,385.234 19.5,368.5 Z"/></g>
<g><path style="opacity:0.968" fill="#44c2e9" d="M 361.5,351.5 C 361.833,351.5 362.167,351.5 362.5,351.5C 367.632,353.9 372.632,356.566 377.5,359.5C 374.102,373.692 370.102,387.692 365.5,401.5C 364.751,400.469 364.085,399.302 363.5,398C 359.02,395.672 354.687,393.172 350.5,390.5C 355.179,377.795 358.846,364.795 361.5,351.5 Z"/></g>
<g><path style="opacity:0.965" fill="#48cfe5" d="M 306.5,366.5 C 312.807,368.987 318.807,371.987 324.5,375.5C 310.212,384.478 295.212,392.144 279.5,398.5C 273.633,395.404 267.967,392.071 262.5,388.5C 277.407,381.713 292.073,374.38 306.5,366.5 Z"/></g>
<g><path style="opacity:0.963" fill="#40b7ec" d="M 458.5,364.5 C 462.995,368.251 467.995,371.251 473.5,373.5C 469.177,385.148 462.177,394.815 452.5,402.5C 448.061,400.446 443.728,398.113 439.5,395.5C 438.614,394.675 438.281,393.675 438.5,392.5C 447.62,384.931 454.286,375.598 458.5,364.5 Z"/></g>
<g><path style="opacity:0.971" fill="#50eade" d="M 123.5,382.5 C 130.518,385.76 137.351,389.427 144,393.5C 144.399,393.272 144.565,392.938 144.5,392.5C 147.784,399.743 151.117,407.076 154.5,414.5C 156,414.833 157.5,415.167 159,415.5C 165.486,414.627 171.986,413.96 178.5,413.5C 185.86,417.512 193.194,421.512 200.5,425.5C 190.468,428.415 180.134,430.415 169.5,431.5C 158.314,424.985 147.147,418.319 136,411.5C 135.617,412.056 135.117,412.389 134.5,412.5C 130.28,402.722 126.613,392.722 123.5,382.5 Z"/></g>
<g><path style="opacity:0.972" fill="#52f0dc" d="M 134.5,412.5 C 135.117,412.389 135.617,412.056 136,411.5C 147.147,418.319 158.314,424.985 169.5,431.5C 167.833,431.5 166.167,431.5 164.5,431.5C 169.923,442.27 176.59,452.27 184.5,461.5C 173.386,456.109 162.386,450.443 151.5,444.5C 149.066,441.151 146.733,437.651 144.5,434C 140.848,433.501 137.182,433.335 133.5,433.5C 127.059,429.441 120.393,425.608 113.5,422C 112.809,420.933 112.309,419.766 112,418.5C 111.601,418.728 111.435,419.062 111.5,419.5C 107.926,408.379 100.592,404.713 89.5,408.5C 85.3979,405.608 81.0645,402.941 76.5,400.5C 75.7025,400.043 75.3691,399.376 75.5,398.5C 85.3566,389.376 96.6899,387.209 109.5,392C 119.774,397.057 125.774,405.224 127.5,416.5C 130.167,416.5 132.833,416.5 135.5,416.5C 135.567,415.041 135.234,413.708 134.5,412.5 Z"/></g>
<g><path style="opacity:0.974" fill="#47cbe6" d="M 350.5,390.5 C 354.687,393.172 359.02,395.672 363.5,398C 364.085,399.302 364.751,400.469 365.5,401.5C 370.111,405.115 373.111,409.782 374.5,415.5C 380.217,415.207 385.884,414.54 391.5,413.5C 396.768,417.476 402.434,420.976 408.5,424C 409.252,424.671 409.586,425.504 409.5,426.5C 397.963,429.589 386.297,431.922 374.5,433.5C 374.414,432.504 374.748,431.671 375.5,431C 370.271,427.887 364.938,425.053 359.5,422.5C 356.337,413.333 350.003,409.667 340.5,411.5C 335.167,408.167 329.833,404.833 324.5,401.5C 327.256,398.611 330.589,396.444 334.5,395C 339.479,394.077 344.479,393.244 349.5,392.5C 349.863,391.817 350.196,391.15 350.5,390.5 Z"/></g>
<g><path style="opacity:0.957" fill="#42bee9" d="M 438.5,392.5 C 438.281,393.675 438.614,394.675 439.5,395.5C 443.728,398.113 448.061,400.446 452.5,402.5C 447.569,408.3 441.569,412.634 434.5,415.5C 428.794,412.653 423.461,409.32 418.5,405.5C 425.683,401.988 432.35,397.654 438.5,392.5 Z"/></g>
<g><path style="opacity:0.976" fill="#49d4e4" d="M 324.5,401.5 C 329.833,404.833 335.167,408.167 340.5,411.5C 334.415,413.792 331.081,418.292 330.5,425C 333.893,437.529 341.559,441.196 353.5,436C 357.672,432.497 359.672,427.997 359.5,422.5C 364.938,425.053 370.271,427.887 375.5,431C 374.748,431.671 374.414,432.504 374.5,433.5C 372.17,443.506 366.17,450.173 356.5,453.5C 356.586,452.504 356.252,451.671 355.5,451C 329.671,436.586 304.004,421.92 278.5,407C 277.748,406.329 277.414,405.496 277.5,404.5C 289.396,407.546 301.396,410.213 313.5,412.5C 316.548,411.135 318.715,408.802 320,405.5C 321.371,403.959 322.871,402.625 324.5,401.5 Z"/></g>
<g><path style="opacity:0.971" fill="#4ee4e0" d="M 213.5,405.5 C 213.369,406.376 213.702,407.043 214.5,407.5C 220.519,411.345 226.852,414.345 233.5,416.5C 222.978,420.883 211.978,423.883 200.5,425.5C 193.194,421.512 185.86,417.512 178.5,413.5C 190.088,411.022 201.755,408.355 213.5,405.5 Z"/></g>
<g><path style="opacity:0.977" fill="#44c5e8" d="M 418.5,405.5 C 423.461,409.32 428.794,412.653 434.5,415.5C 426.853,420.485 418.52,424.152 409.5,426.5C 409.586,425.504 409.252,424.671 408.5,424C 402.434,420.976 396.768,417.476 391.5,413.5C 400.648,411.297 409.648,408.63 418.5,405.5 Z"/></g>
<g><path style="opacity:0.974" fill="#55fada" d="M 49.5,409.5 C 49.7352,408.903 50.2352,408.57 51,408.5C 61.9251,414.378 72.7584,420.378 83.5,426.5C 91.2472,437.255 99.7472,437.921 109,428.5C 110.302,425.625 111.135,422.625 111.5,419.5C 111.435,419.062 111.601,418.728 112,418.5C 112.309,419.766 112.809,420.933 113.5,422C 120.393,425.608 127.059,429.441 133.5,433.5C 130.813,433.336 128.146,433.503 125.5,434C 114.196,452.321 98.8627,456.654 79.5,447C 70.0786,439.955 65.0786,430.455 64.5,418.5C 59.2206,415.871 54.2206,412.871 49.5,409.5 Z"/></g>
<g><path style="opacity:0.974" fill="#54f6db" d="M 151.5,444.5 C 162.386,450.443 173.386,456.109 184.5,461.5C 193.037,470.763 202.703,478.596 213.5,485C 221.474,488.936 229.808,491.769 238.5,493.5C 247.052,499.277 256.052,504.277 265.5,508.5C 242.934,513.492 221.6,509.992 201.5,498C 180.117,484.455 163.451,466.622 151.5,444.5 Z"/></g>
<g><path style="opacity:0.96" fill="#4fe8df" d="M 310.5,461.5 C 314.566,465.194 319.233,468.194 324.5,470.5C 314.539,483.464 302.206,493.464 287.5,500.5C 282.514,496.339 277.181,492.673 271.5,489.5C 286.44,482.864 299.44,473.53 310.5,461.5 Z"/></g>
<g><path style="opacity:0.97" fill="#52f0dc" d="M 271.5,489.5 C 277.181,492.673 282.514,496.339 287.5,500.5C 280.749,504.531 273.415,507.197 265.5,508.5C 256.052,504.277 247.052,499.277 238.5,493.5C 249.809,494.387 260.809,493.054 271.5,489.5 Z"/></g>
</svg>
